{
  "accessors": [
    {
      "bufferView": 2,
      "componentType": 5126,
      "count": 3530,
      "max": [
        0.7501773834228516,
        0.7693336606025696,
        0.1968660205602646
      ],
      "min": [
        -0.7593352794647217,
        -0.7775002717971802,
        -0.32099321484565735
      ],
      "type": "VEC3"
    },
    {
      "bufferView": 2,
      "byteOffset": 42360,
      "componentType": 5126,
      "count": 3530,
      "max": [
        0.9992823600769043,
        0.9997447729110718,
        0.9999855756759644
      ],
      "min": [
        -0.9994029998779297,
        -0.9995362758636475,
        -0.9999901056289673
      ],
      "type": "VEC3"
    },
    {
      "bufferView": 1,
      "componentType": 5126,
      "count": 3530,
      "max": [
        0.9721102714538574,
        0.9791721105575562
      ],
      "min": [
        0.016222398728132248,
        0.011820197105407715
      ],
      "type": "VEC2"
    },
    {
      "bufferView": 0,
      "componentType": 5125,
      "count": 17958,
      "type": "SCALAR"
    }
  ],
  "asset": {
    "extras": {
      "author": "prof.minaudo (https://sketchfab.com/prof.minaudo)",
      "license": "CC-BY-4.0 (http://creativecommons.org/licenses/by/4.0/)",
      "source": "https://sketchfab.com/3d-models/formica-c311c5a676c343e19b4848fc7faecd37",
      "title": "Formica"
    },
    "generator": "Sketchfab-12.68.0",
    "version": "2.0"
  },
  "bufferViews": [
    {
      "buffer": 0,
      "byteLength": 71832,
      "name": "floatBufferViews",
      "target": 34963
    },
    {
      "buffer": 0,
      "byteLength": 28240,
      "byteOffset": 71832,
      "byteStride": 8,
      "name": "floatBufferViews",
      "target": 34962
    },
    {
      "buffer": 0,
      "byteLength": 84720,
      "byteOffset": 100072,
      "byteStride": 12,
      "name": "floatBufferViews",
      "target": 34962
    }
  ],
  "buffers": [
    {
      "byteLength": 184792,
      "uri": "scene.bin"
    }
  ],
  "materials": [
    {
      "doubleSided": true,
      "name": "Material",
      "pbrMetallicRoughness": {
        "baseColorFactor": [
          0.0508739,
          0.00853821,
          0.00465441,
          1.0
        ],
        "metallicFactor": 0.450382,
        "roughnessFactor": 0.270229
      }
    }
  ],
  "meshes": [
    {
      "name": "Object_0",
      "primitives": [
        {
          "attributes": {
            "NORMAL": 1,
            "POSITION": 0,
            "TEXCOORD_0": 2
          },
          "indices": 3,
          "material": 0,
          "mode": 4
        }
      ]
    }
  ],
  "nodes": [
    {
      "children": [
        1
      ],
      "matrix": [
        1.0,
        0.0,
        0.0,
        0.0,
        0.0,
        2.220446049250313e-16,
        -1.0,
        0.0,
        0.0,
        1.0,
        2.220446049250313e-16,
        0.0,
        0.0,
        0.0,
        0.0,
        1.0
      ],
      "name": "Sketchfab_model"
    },
    {
      "children": [
        2
      ],
      "name": "root"
    },
    {
      "children": [
        3
      ],
      "matrix": [
        1.0,
        0.0,
        0.0,
        0.0,
        0.0,
        2.220446049250313e-16,
        1.0,
        0.0,
        0.0,
        -1.0,
        2.220446049250313e-16,
        0.0,
        0.0,
        0.0,
        0.0,
        1.0
      ],
      "name": "GLTF_SceneRootNode"
    },
    {
      "children": [
        4
      ],
      "matrix": [
        -0.016567066517101138,
        0.050324798298116764,
        1.8057047319051942,
        0.0,
        1.8063581694952697,
        -0.012677675473782152,
        0.016926387171061173,
        0.0,
        0.013143754641520095,
        1.8057362274384332,
        -0.050205084123781454,
        0.0,
        -0.13609004020690918,
        0.6225365400314331,
        0.0,
        1.0
      ],
      "name": "Mesh_0_0"
    },
    {
      "mesh": 0,
      "name": "Object_4"
    }
  ],
  "scene": 0,
  "scenes": [
    {
      "name": "Sketchfab_Scene",
      "nodes": [
        0
      ]
    }
  ]
}
